<svg xmlns="http://www.w3.org/2000/svg" xmlns:xlink="http://www.w3.org/1999/xlink" width="26.767" height="27.474" viewBox="0 0 26.767 27.474"><defs><filter id="a" x="1.519" y="8.524" width="11.251" height="11.706" filterUnits="userSpaceOnUse"><feOffset dy="3" input="SourceAlpha"/><feGaussianBlur stdDeviation="1.5" result="b"/><feFlood flood-opacity="0.275"/><feComposite operator="in" in2="b"/><feComposite in="SourceGraphic"/></filter><filter id="c" x="0" y="3.088" width="20.434" height="24.385" filterUnits="userSpaceOnUse"><feOffset dy="6" input="SourceAlpha"/><feGaussianBlur stdDeviation="3" result="d"/><feFlood flood-opacity="0.392"/><feComposite operator="in" in2="d"/><feComposite in="SourceGraphic"/></filter><filter id="e" x="7.815" y="1.329" width="11.119" height="16.511" filterUnits="userSpaceOnUse"><feOffset dy="3" input="SourceAlpha"/><feGaussianBlur stdDeviation="1.5" result="f"/><feFlood flood-opacity="0.275"/><feComposite operator="in" in2="f"/><feComposite in="SourceGraphic"/></filter><filter id="g" x="10.864" y="4.035" width="11.25" height="11.824" filterUnits="userSpaceOnUse"><feOffset dy="3" input="SourceAlpha"/><feGaussianBlur stdDeviation="1.5" result="h"/><feFlood flood-opacity="0.275"/><feComposite operator="in" in2="h"/><feComposite in="SourceGraphic"/></filter></defs><g transform="translate(-4461.233 -4711.169)"><g transform="translate(4465 4711.169)"><path d="M11.5-.352A11.5,11.5,0,1,1,0,11.148,11.513,11.513,0,0,1,11.5-.352Z" transform="translate(0 0.352)" fill="#fff"/><g transform="translate(8.704 4.392)" fill="#407bff"><path d="M 1.073726892471313 15.40236377716064 L 0.8267368674278259 15.40236377716064 C 0.6193068623542786 15.40236377716064 0.3881868720054626 15.1530933380127 0.3881868720054626 14.79541397094727 L 0.3881868720054626 0.958513617515564 C 0.3881868720054626 0.6008335947990417 0.6193068623542786 0.3515636026859283 0.8267368674278259 0.3515636026859283 L 1.073726892471313 0.3515636026859283 C 1.288306832313538 0.3515636026859283 1.462886929512024 0.6238436102867126 1.462886929512024 0.958513617515564 L 1.462886929512024 9.691133499145508 L 1.462886929512024 14.79541397094727 C 1.462886929512024 15.13008403778076 1.288306832313538 15.40236377716064 1.073726892471313 15.40236377716064 Z" stroke="none"/><path d="M 0.9103129506111145 0.8515634536743164 C 0.8993446230888367 0.8747367858886719 0.8881869912147522 0.9106826782226562 0.8881869912147522 0.9585132598876953 L 0.8881869912147522 14.79541397094727 C 0.8881869912147522 14.8432445526123 0.8993446230888367 14.87919044494629 0.9103129506111145 14.90236377716064 L 0.949316143989563 14.90236377716064 C 0.9567927718162537 14.87553977966309 0.9628869891166687 14.83970928192139 0.9628869891166687 14.79541397094727 L 0.9628869891166687 9.691133499145508 L 0.9628869891166687 0.9585132598876953 C 0.9628869891166687 0.9142179489135742 0.9567927718162537 0.878387451171875 0.949316143989563 0.8515634536743164 L 0.9103129506111145 0.8515634536743164 M 0.8267370462417603 -0.1484365463256836 L 1.073727011680603 -0.1484365463256836 C 1.585916996002197 -0.1484365463256836 1.962887048721313 0.3485832214355469 1.962887048721313 0.9585132598876953 L 1.962887048721313 9.691133499145508 L 1.962887048721313 14.79541397094727 C 1.962887048721313 15.40534400939941 1.585916996002197 15.90236377716064 1.073727011680603 15.90236377716064 L 0.8267370462417603 15.90236377716064 C 0.3145569562911987 15.90236377716064 -0.1118130683898926 15.40534400939941 -0.1118130683898926 14.79541397094727 L -0.1118130683898926 0.9585132598876953 C -0.1118130683898926 0.3485832214355469 0.3145569562911987 -0.1484365463256836 0.8267370462417603 -0.1484365463256836 Z" stroke="none" fill="#407bff"/></g><g transform="translate(11.439 5.658)" fill="#407bff"><path d="M 1.277779340744019 12.29144191741943 C 0.697369396686554 12.29144191741943 0.6679693460464478 11.64354228973389 0.6679693460464478 11.51366233825684 L 0.6738293766975403 1.278071880340576 C 0.6738293766975403 1.095321893692017 0.7173793911933899 0.5000019073486328 1.277779340744019 0.5000019073486328 C 1.74165940284729 0.5000019073486328 1.906249403953552 0.9189919233322144 1.906249403953552 1.277781963348389 L 1.906249403953552 11.51366233825684 C 1.906249403953552 11.87245178222656 1.74165940284729 12.29144191741943 1.277779340744019 12.29144191741943 Z" stroke="none"/><path d="M 1.277779340744019 1.000001907348633 C 1.256240487098694 1.000001907348633 1.243810892105103 1.002220153808594 1.238250374794006 1.003568649291992 C 1.221651792526245 1.02288818359375 1.173829317092896 1.109663009643555 1.173829317092896 1.278351783752441 L 1.167969346046448 11.51366233825684 C 1.167969346046448 11.69242191314697 1.222879409790039 11.77718162536621 1.232889413833618 11.78642177581787 C 1.236269354820251 11.78782176971436 1.250909328460693 11.79144191741943 1.277779340744019 11.79144191741943 C 1.326319336891174 11.79144191741943 1.333479404449463 11.78290176391602 1.340409398078918 11.77464199066162 C 1.370779395103455 11.73842239379883 1.406249403953552 11.64834213256836 1.406249403953552 11.51366233825684 L 1.406249403953552 1.27778148651123 C 1.406249403953552 1.143101692199707 1.370779395103455 1.053022384643555 1.340409398078918 1.016801834106445 C 1.333479404449463 1.008542060852051 1.326319336891174 1.000001907348633 1.277779340744019 1.000001907348633 M 1.277779340744019 1.9073486328125e-06 C 1.983479380607605 1.9073486328125e-06 2.406249284744263 0.5720815658569336 2.406249284744263 1.27778148651123 L 2.406249284744263 11.51366233825684 C 2.406249284744263 12.21936225891113 1.983479380607605 12.79144191741943 1.277779340744019 12.79144191741943 C 0.5720794200897217 12.79144191741943 0.1679694652557373 12.21936225891113 0.1679694652557373 11.51366233825684 L 0.1738293170928955 1.27778148651123 C 0.1738293170928955 0.5720815658569336 0.5720794200897217 1.9073486328125e-06 1.277779340744019 1.9073486328125e-06 Z" stroke="none" fill="#407bff"/></g><g transform="translate(14.603 8.241)" fill="#407bff" stroke="#407bff" stroke-width="1"><rect width="2.373" height="6.58" rx="1.187" stroke="none"/><rect x="0.5" y="0.5" width="1.373" height="5.58" rx="0.687" fill="none"/></g><g transform="translate(17.767 5.965)" fill="#407bff" stroke="#407bff" stroke-width="1"><rect width="2.373" height="11.439" rx="1.187" stroke="none"/><rect x="0.5" y="0.5" width="1.373" height="10.439" rx="0.687" fill="none"/></g><g transform="translate(5.294 6.703)" fill="#407bff" stroke="#407bff" stroke-width="1"><rect width="2.373" height="11.193" rx="1.187" stroke="none"/><rect x="0.5" y="0.5" width="1.373" height="10.193" rx="0.687" fill="none"/></g></g><g transform="matrix(1, 0, 0, 1, 4461.23, 4711.17)" filter="url(#a)"><rect width="2.251" height="2.706" rx="1.126" transform="translate(6.02 10.02)" fill="#c8d9ff"/></g><g transform="matrix(1, 0, 0, 1, 4461.23, 4711.17)" filter="url(#c)"><path d="M0,1.217a1.217,1.217,0,0,1,2.434,0v3.6L0,6.385Z" transform="translate(9 6.09)" fill="#c8d9ff"/></g><g transform="matrix(1, 0, 0, 1, 4461.23, 4711.17)" filter="url(#e)"><path d="M0,1.059a1.059,1.059,0,0,1,2.119,0V6.154L0,7.511Z" transform="translate(12.32 2.83)" fill="#c8d9ff"/></g><g transform="matrix(1, 0, 0, 1, 4461.23, 4711.17)" filter="url(#g)"><path d="M.206,1.278C.206.572.58,0,1.3,0A1.17,1.17,0,0,1,2.457,1.278v.129L.206,2.824Z" transform="translate(15.16 5.53)" fill="#c8d9ff"/></g></g></svg>